<svg id="Layer_1" data-name="Layer 1" xmlns="http://www.w3.org/2000/svg" xmlns:xlink="http://www.w3.org/1999/xlink" width="378.5" height="424.39" viewBox="0 0 378.5 424.39"><defs><clipPath id="clip-path" transform="translate(-194.75 -194.75)"><path d="M533.82,249.95H234.18V489.72a20.45,20.45,0,0,0,20.44,20.44H513.4a20.45,20.45,0,0,0,20.44-20.44l0-239.78Z" style="fill:none"/></clipPath><linearGradient id="linear-gradient" x1="-52.2" y1="140.46" x2="-10.18" y2="140.46" gradientTransform="matrix(5.33, 0, 0, -5.33, 550.33, 1190.33)" gradientUnits="userSpaceOnUse"><stop offset="0" stop-color="#d93025"/><stop offset="1" stop-color="#ea4335"/></linearGradient><linearGradient id="linear-gradient-2" x1="-1231.46" y1="804.91" x2="-1189.43" y2="804.91" gradientTransform="matrix(-2.67, -4.62, -4.62, 2.67, 831.73, -7223.06)" gradientUnits="userSpaceOnUse"><stop offset="0" stop-color="#1e8e3e"/><stop offset="1" stop-color="#34a853"/></linearGradient><linearGradient id="linear-gradient-3" x1="-66.7" y1="1529.1" x2="-24.67" y2="1529.1" gradientTransform="matrix(-2.67, 4.62, 4.62, 2.67, -6762.75, -3344.79)" gradientUnits="userSpaceOnUse"><stop offset="0" stop-color="#fbbc04"/><stop offset="1" stop-color="#fcc934"/></linearGradient></defs><title>Chrome Web Store logo - Brandlogos.net</title><rect id="bounding-box-1" width="378.5" height="378.5" style="fill:none"/><g id="art-layer"><path d="M533.82,249.95H234.18V489.72a20.45,20.45,0,0,0,20.44,20.44H513.4a20.45,20.45,0,0,0,20.44-20.44l0-239.78Z" transform="translate(-194.75 -194.75)" style="fill:#f1f3f4"/><path d="M533.82,249.95H234.18V489.72a20.45,20.45,0,0,0,20.44,20.44H513.4a20.45,20.45,0,0,0,20.44-20.44l0-239.78Z" transform="translate(-194.75 -194.75)" style="fill:#f1f3f4"/><rect x="39.43" y="55.2" width="299.65" height="130.8" style="fill:#e8eaed"/><path d="M418,305.82H350a13.61,13.61,0,0,1-13.62-13.62h0A13.61,13.61,0,0,1,350,278.57H418a13.61,13.61,0,0,1,13.62,13.62h0A13.63,13.63,0,0,1,418,305.82Z" transform="translate(-194.75 -194.75)" style="fill:#fff"/><g style="clip-path:url(#clip-path)"><path d="M271.95,425l17.84,54.43L328,522.07l56-97,112.05,0a129.4,129.4,0,0,0-224.1,0Z" transform="translate(-194.75 -194.75)" style="fill:url(#linear-gradient)"/><path d="M384,619.14l38.2-42.66L440,522.07H328l-56-97.07A129.45,129.45,0,0,0,384,619.14Z" transform="translate(-194.75 -194.75)" style="fill:url(#linear-gradient-2)"/><path d="M496.05,425H384l56,97-56,97.07A129.44,129.44,0,0,0,496.05,425Z" transform="translate(-194.75 -194.75)" style="fill:url(#linear-gradient-3)"/><ellipse cx="189.25" cy="294.97" rx="64.68" ry="64.7" style="fill:#f1f3f4"/><ellipse cx="189.25" cy="294.97" rx="52.56" ry="52.58" style="fill:#1a73e8"/></g><rect x="39.43" y="186" width="299.65" height="1.7" style="fill:#bdc1c6;opacity:0.10000000149011612;isolation:isolate"/><rect x="39.43" y="184.28" width="299.65" height="1.7" style="fill:#bdc1c6;opacity:0.10000000149011612;isolation:isolate"/></g></svg>